<svg width="183" height="60" viewBox="0 0 183 60" fill="none" xmlns="http://www.w3.org/2000/svg">
<g filter="url(#filter0_d_7_525)">
<path d="M4 42.7201C4 49.7584 10.9152 52.1264 17.4947 51.9948C30.318 51.7975 46.4982 44.6276 56.636 37.9182C56.8374 37.7209 57.3745 36.4053 57.1731 36.1422C56.9045 35.8133 56.5688 35.7475 56.3003 35.9449C46.1625 42.6543 29.5123 49.8899 17.0247 49.9557C12.6608 49.9557 5.47703 48.969 5.47703 43.3121C5.47703 26.3412 41.7314 -0.101757 52.6077 2.06893C56.4346 2.7925 54.5547 7.85744 53.6819 10.4886C52.742 13.1855 50.9293 16.0798 49.8551 18.1847C49.5865 18.6451 49.9222 20.6185 50.7279 20.5527C52.5406 17.4611 56.636 9.43612 56.166 3.91073C55.9646 2.06893 54.8904 0.621801 52.6749 0.161351C40.1201 -2.33823 4 24.7625 4 42.7201ZM72.2791 36.0764C72.8833 35.5502 72.8833 33.7084 72.0777 34.3004C70.265 35.6818 63.0141 39.8258 58.583 39.8258C55.2932 39.8258 57.3074 36.8 58.0459 35.7475L58.5158 35.8791C60.8657 36.4711 66.9752 34.3004 66.9752 32.1297C66.9752 31.0115 65.5653 30.0906 64.4911 29.959C60.8657 29.5644 55.2932 34.0373 55.2932 38.2471C55.2932 40.2205 57.0388 41.6018 59.0529 41.6018C63.6854 41.6018 70.6678 37.5236 72.2791 36.0764ZM65.2296 31.7351C64.424 32.8533 61.8727 34.1689 58.9858 34.3662C60.3286 33.0506 63.1483 31.143 65.2296 31.7351ZM68.9222 39.9574C68.5865 40.5494 69.9293 41.7992 70.4664 40.944C72.4805 37.7209 76.1059 33.7084 77.7172 32.4586C78.1872 34.0373 79.3285 35.5502 80.9398 35.5502C82.7526 35.5502 85.0353 34.4978 86.3109 33.9057C87.1165 33.5111 86.9823 31.9982 86.2437 32.2613C84.6996 32.9191 82.6183 33.7084 80.8727 33.7084C79.7985 33.7084 79.1271 33.248 78.9929 31.4719C78.9929 31.0115 78.6572 30.1564 78.1201 30.4195C77.6501 30.6168 76.3745 31.7351 75.7703 32.2613C76.1059 31.6693 76.9787 30.4853 77.3816 29.959C77.6501 29.5644 77.113 28.8408 76.7773 28.6435C76.5088 28.4461 76.1059 28.5119 75.9045 28.8408C73.6218 32.1297 70.8692 36.208 68.9222 39.9574ZM85.3038 41.3387C87.855 41.3387 94.5017 36.8 96.0458 35.4844C96.7172 34.8266 96.5158 33.1164 95.8444 33.5768C92.3533 36.208 87.3851 39.2996 84.9681 39.2996C84.8338 39.2996 84.6996 39.2996 84.4982 39.2338C84.4982 38.8391 84.6996 37.9182 85.1695 36.9973C86.1095 35.2871 88.1236 32.6559 89.2649 31.4062C89.8692 30.8141 88.5936 29.1697 88.1236 29.8275C86.9151 31.0773 84.5653 34.1689 83.6254 36.0764C83.0883 36.9316 82.7526 37.9182 82.7526 38.7076C82.7526 39.6943 84.0953 41.3387 85.3038 41.3387ZM90.4734 26.2754C89.8692 26.8674 90.8091 28.4461 91.6148 27.8541C92.6218 27.0648 93.2261 25.8808 93.9646 25.223C94.636 24.6968 93.5618 23.1181 92.7561 23.7101C91.8833 24.4994 91.1448 25.4861 90.4734 26.2754ZM107.258 37.8525C107.258 38.9049 107.661 40.4836 109.205 40.4836C111.957 40.4836 116.053 37.4578 117.731 36.208C118.268 35.8133 118 34.3004 117.194 34.8924C115.919 35.616 110.682 39.0365 108.601 38.6418C108.601 37.392 109.809 32.3928 107.996 32.3928C106.586 32.3928 105.244 33.5111 104.237 34.3004C104.505 33.5111 104.975 32.3928 104.975 31.4062C104.975 30.4853 104.505 29.4986 103.565 29.4986C102.223 29.4986 100.343 30.9457 99.2013 31.9982C99.3356 31.7351 99.067 30.8799 98.8656 30.7484C98.6642 30.551 98.2614 30.551 98.06 30.8141C96.7844 32.2613 93.2261 37.5236 92.3533 39.0365C92.0847 39.5627 92.689 41.0098 93.4275 40.2863C95.3745 38.4445 101.618 31.143 103.565 31.143C103.095 32.8533 101.551 35.3529 101.551 36.6684C101.551 37.1947 101.954 38.2471 102.357 38.0498C103.162 37.6551 105.781 35.1555 107.728 34.1689C107.728 35.3529 107.258 36.4711 107.258 37.8525ZM116.321 37.4578C116.321 38.576 117.329 40.6809 118.738 40.6809C120.618 40.6809 122.968 38.3787 124.177 34.6951C126.258 35.1555 129.682 35.0898 131.83 34.7609C132.703 34.6293 132.434 33.1822 131.629 33.1822C128.272 33.5111 126.124 33.3795 124.512 33.0506C124.512 31.8666 124.244 30.2879 122.901 29.6301C122.095 29.3012 121.424 29.7617 121.021 30.2879C120.82 30.6168 120.753 30.9457 120.753 31.4062C118.403 32.5244 116.321 35.1555 116.321 37.4578ZM122.7 34.1689C121.424 36.9316 119.611 38.9049 118.604 38.9049C116.523 38.9049 118.537 34.3662 121.357 33.0506C121.76 33.6426 122.162 33.9715 122.7 34.1689ZM123.102 32.5902C122.7 32.3928 122.498 32.2613 122.364 32.1955C122.364 32.0639 122.364 31.9324 122.162 31.6693C122.431 31.2088 122.565 31.2746 122.565 31.2746C122.834 31.4719 123.169 31.7351 123.102 32.5902ZM124.982 28.6435C125.251 28.8408 125.922 28.7092 125.721 28.3146C125.519 27.8541 125.251 27.1306 125.117 26.6701C125.049 26.407 123.908 25.7492 123.505 25.9465C123.169 26.1439 121.155 27.3937 120.417 27.6568C119.947 27.9199 121.155 28.775 121.692 28.5777C122.23 28.3146 123.438 27.591 124.177 27.1963C124.244 27.7883 124.781 28.3803 124.982 28.6435ZM127.601 40.0889C127.332 40.6152 128.272 41.8649 128.876 41.1414C130.353 39.3654 136.597 32.3271 138.88 32.3271C139.081 32.3271 139.014 32.7217 139.014 34.8924C139.014 36.8 139.618 39.5627 142.169 39.5627C144.586 39.5627 148.48 37.0631 150.897 35.024C151.434 34.4978 151.166 32.8533 150.495 33.3795C146.936 36.0107 143.378 37.5893 141.834 37.5893C140.625 37.5893 140.424 36.9316 140.424 35.2871C140.424 34.6293 140.491 33.9057 140.491 33.3137C140.491 32.4586 140.222 31.4719 139.417 30.9457C137.94 30.2221 136.127 31.4062 134.314 32.9191L133.777 33.3795L134.919 31.6035C135.187 31.2746 134.583 30.4853 134.314 30.1564C133.979 30.0248 133.643 30.1564 133.442 30.4195L127.601 40.0889ZM150.36 41.3387C152.979 41.3387 159.558 36.8 161.102 35.4844C161.841 34.8266 161.572 33.1164 160.901 33.5768C157.41 36.208 152.442 39.2996 150.025 39.2996C149.89 39.2996 149.756 39.2996 149.555 39.2338C149.555 38.8391 149.756 37.9182 150.293 36.9973C151.166 35.2871 153.18 32.6559 154.389 31.4062C154.993 30.8141 153.717 29.1697 153.18 29.8275C151.972 31.0773 149.622 34.1689 148.682 36.0764C148.212 36.9316 147.809 37.9182 147.809 38.7076C147.809 39.6943 149.152 41.3387 150.36 41.3387ZM155.53 26.2754C154.993 26.8674 155.866 28.4461 156.671 27.8541C157.678 27.0648 158.283 25.8808 159.021 25.223C159.692 24.6968 158.618 23.1181 157.813 23.7101C156.94 24.4994 156.201 25.4861 155.53 26.2754ZM165.466 37.6551C165.466 39.5627 166.54 40.944 168.622 40.944C170.904 40.944 176.41 37.4578 178.625 35.3529C179.364 34.6951 178.894 33.4453 178.222 33.9057C176.007 35.4187 170.166 39.2996 167.95 39.2996C167.48 39.2996 167.279 39.1022 167.279 38.6418C167.279 37.1289 169.696 34.0373 171.307 31.9982C172.046 31.3404 170.703 29.6301 170.099 30.2879L168.957 31.4719C168.487 30.8142 167.413 30.2221 166.54 30.2221C164.728 30.2221 163.116 31.4062 161.774 32.5902C160.364 33.84 157.141 37.0631 157.343 39.2338C157.343 40.2205 158.753 41.0098 159.76 41.0098C161.438 41.0098 163.989 38.9049 165.466 37.6551ZM168.085 32.5244C163.654 36.8658 160.297 39.5627 159.088 39.5627C159.155 37.1947 164.593 31.7351 166.809 31.7351C167.413 31.7351 167.816 32.1955 168.085 32.5244Z" fill="#FEFEFE"/>
</g>
<defs>
<filter id="filter0_d_7_525" x="0" y="0" width="183" height="60" filterUnits="userSpaceOnUse" color-interpolation-filters="sRGB">
<feFlood flood-opacity="0" result="BackgroundImageFix"/>
<feColorMatrix in="SourceAlpha" type="matrix" values="0 0 0 0 0 0 0 0 0 0 0 0 0 0 0 0 0 0 127 0" result="hardAlpha"/>
<feOffset dy="4"/>
<feGaussianBlur stdDeviation="2"/>
<feComposite in2="hardAlpha" operator="out"/>
<feColorMatrix type="matrix" values="0 0 0 0 0 0 0 0 0 0 0 0 0 0 0 0 0 0 0.25 0"/>
<feBlend mode="normal" in2="BackgroundImageFix" result="effect1_dropShadow_7_525"/>
<feBlend mode="normal" in="SourceGraphic" in2="effect1_dropShadow_7_525" result="shape"/>
</filter>
</defs>
</svg>
