<svg width="63" height="22" viewBox="0 0 63 22" fill="none" xmlns="http://www.w3.org/2000/svg">
<g filter="url(#filter0_d_6_982)">
<path d="M0.455839 21.3148C0.227919 21.0916 0.11396 20.98 0 20.7568C0 20.4221 0.227919 19.3061 0.911678 17.2974C1.59544 15.2886 2.05128 13.9495 2.39316 13.3915C2.62108 12.9451 2.849 12.3871 2.96296 11.9408C3.07692 11.3828 3.19088 11.1596 3.19088 11.048C3.19088 10.8248 3.19088 10.7132 3.19088 10.6016C3.19088 10.49 3.30484 10.3784 3.53276 10.1552C3.76068 9.93204 4.10256 9.37406 4.5584 8.59289L6.15383 3.90584C6.38175 3.23626 6.38176 2.90148 6.38176 2.90148C6.2678 2.90148 6.03988 2.9015 5.35612 3.0131C4.67236 3.12469 4.44444 3.12467 4.33048 3.12467C3.76068 3.23627 3.53276 3.01307 3.53276 2.67828C3.64672 1.89711 3.98859 1.45076 4.67235 1.45076C6.38175 1.00438 7.40739 0.892745 7.52135 0.892745C7.86323 0.669553 7.97719 0.55799 7.97719 0.446394C7.97719 0.223202 8.09115 0.111577 8.43303 0.111577C8.77491 0.111577 9.11679 0.111582 9.23075 0.334774C9.34471 0.669562 10.3704 0.557985 12.0798 0.223197C13.7891 0.111601 14.7008 0.111601 15.1567 0.223197C15.2706 0.111601 15.4985 0.111577 15.8404 0.111577C16.2963 0.111577 16.6381 0 16.7521 0C17.6638 0.111596 18.1196 0.223178 18.2336 0.334774C18.3475 0.44637 18.3475 0.557976 18.3475 0.781168L18.5755 0.892745C18.9173 1.11594 19.0313 1.33913 18.9173 1.67391C18.9173 1.89711 18.8034 2.00873 18.5755 2.00873C18.4615 2.00873 17.8917 2.00873 17.094 2.00873C15.4985 1.78554 13.4473 1.89714 11.0541 2.23193C9.91451 2.23193 9.23075 2.45509 9.00283 2.67828C8.54699 3.12466 7.97719 4.35224 7.17947 6.36096C6.38175 8.36969 6.03988 9.48564 5.92592 9.48564C6.72364 9.70883 8.77492 9.70885 12.1937 9.37406C13.2194 9.15087 13.7891 9.15084 13.9031 9.26244C14.131 9.26244 14.245 9.48567 14.3589 9.82045C14.4729 10.1552 14.4729 10.49 14.3589 10.6016C14.131 11.048 12.1937 11.3828 8.31908 11.3828C6.95156 11.4944 5.92592 11.3828 5.47008 11.3828C5.24216 11.4944 5.12819 11.7176 5.12819 11.9408C4.78631 12.6103 4.10256 13.9495 3.4188 15.9582C2.62108 17.9669 2.16524 19.1945 2.16524 19.6409C2.05128 20.0872 1.93732 20.5336 1.82336 20.8684C1.7094 21.3148 1.7094 21.538 1.59544 21.6496C1.59544 21.6496 1.48148 21.6496 1.1396 21.6496C0.911683 21.6496 0.683759 21.538 0.455839 21.3148ZM21.1965 12.9451C21.5384 12.7219 21.9943 12.4987 22.3361 12.0523C22.792 11.7176 22.9059 11.3828 22.9059 11.048C22.9059 10.7132 22.792 10.49 22.4501 10.3784C22.1082 10.1552 21.7663 10.0436 21.3105 10.1552C20.9686 10.2668 20.5128 10.6016 20.0569 10.9364C19.6011 11.3828 19.2592 11.7176 18.9173 12.164C18.6894 12.4987 18.5755 12.7219 18.5755 12.8335C18.6894 12.9451 19.0313 13.0567 19.7151 13.0567C20.2849 13.0567 20.8547 13.0567 21.1965 12.9451ZM21.1965 18.1901L21.3105 18.0785C21.5384 17.8553 21.7663 17.7437 21.9943 17.5206C22.2222 17.2974 22.3361 17.1858 22.4501 17.1858C22.5641 17.1858 22.678 17.1858 22.792 17.2974C22.9059 17.409 23.0199 17.5206 23.0199 17.5206C23.4757 17.5206 23.3618 17.7437 22.9059 18.4133C22.4501 18.9713 21.8803 19.4177 21.1965 19.8641C20.5128 20.422 19.7151 20.6452 18.6894 20.5337C17.7777 20.3105 16.98 19.8641 16.4102 19.0829C15.7265 18.1901 15.3846 16.851 15.6125 14.9539C15.7265 13.7263 16.1823 12.4987 17.2079 11.2712C18.2336 9.93202 19.2592 9.15085 20.2849 8.70447C20.6267 8.48128 20.9686 8.36969 21.1965 8.36969C21.4245 8.36969 21.8803 8.36968 22.5641 8.48127C23.1339 8.59287 23.7037 8.81606 24.0455 9.26244C24.6153 9.82042 24.8433 10.49 24.8433 11.1596C24.7293 11.7176 24.3874 12.2756 23.8176 12.9451C23.2478 13.6147 22.5641 14.1727 21.6524 14.619C20.3988 14.9538 19.3732 14.9539 18.5755 14.3959C18.2336 14.2843 17.8917 14.2843 17.7777 14.5075C17.6638 14.7307 17.5498 15.2887 17.4359 16.1814C17.2079 17.6322 17.5498 18.5249 18.4615 18.6365C18.5755 18.6365 18.6894 18.6365 18.9173 18.7481C19.1453 18.7481 19.2592 18.7481 19.2592 18.7481C19.3732 18.7481 19.3732 18.7481 19.6011 18.8597C19.7151 18.8597 19.829 18.8597 19.943 18.7481C20.0569 18.7481 20.2849 18.6365 20.3988 18.5249C20.6267 18.5249 20.7407 18.4133 20.7407 18.4133C20.9686 18.3017 21.0826 18.1901 21.1965 18.1901ZM31.111 18.4133L30.5412 18.1901C30.5412 17.967 30.1994 17.7437 29.5156 17.4089C28.376 16.4046 27.8062 15.8466 27.9202 15.735V15.5118C27.6922 15.5118 27.5783 15.2886 27.3504 14.9539C27.1225 14.5075 27.1224 14.0611 27.1224 13.7263C27.1224 13.2799 27.2364 12.7219 27.5783 12.0523C27.9202 11.3828 28.376 10.8248 28.9458 10.2668C29.4016 9.82042 30.1994 9.15087 31.225 8.59289C33.2763 7.25374 34.7578 6.80735 35.5555 7.36533C36.2392 7.70012 36.6951 8.25807 37.037 9.03924C37.037 10.3784 36.809 11.048 36.4672 11.048C36.3532 11.048 36.2392 11.1596 36.2392 11.2712C36.2392 11.4944 36.1253 11.7176 35.7834 12.0523C34.7578 12.7219 34.188 12.7219 34.074 12.164C33.96 11.9408 33.8461 11.8291 33.7321 11.8291C33.6182 11.8291 33.6182 11.606 33.6182 11.3828L33.7321 11.048C33.8461 11.048 34.074 10.8248 34.4159 10.2668C34.7578 9.82042 34.8717 9.48563 34.8717 9.26244C34.8717 9.15084 34.8717 9.03924 34.8717 9.03924C34.8717 9.03924 34.7578 9.03924 34.5298 9.03924C32.8204 9.70882 31.6808 10.3784 31.339 10.7132C31.225 10.9364 31.111 10.9364 31.111 11.048H30.9971C30.9971 10.9364 30.6552 11.2712 29.8575 12.2755C29.7435 12.4987 29.5156 12.8335 29.1737 13.2799C29.0598 13.3915 28.9458 13.6147 28.9458 13.9495C28.9458 14.1727 28.9458 14.3959 28.9458 14.3959C28.9458 14.5075 28.9458 14.5074 28.9458 14.619V14.7307C28.9458 14.7307 28.9458 14.8422 29.0598 14.8422L29.1737 14.9539C29.1737 14.9539 29.2877 15.0655 29.4016 15.1771C29.5156 15.2886 29.6296 15.2887 29.7435 15.4002C31.7948 16.851 32.8204 17.8553 32.9344 18.4133C33.3902 19.0829 33.5042 19.5293 33.3902 19.8641C33.1623 20.1988 32.9344 20.422 32.3646 20.6452C31.9088 20.8684 31.225 21.0916 30.3133 21.0916C29.4016 21.2032 28.7179 21.2032 28.2621 21.0916C27.8062 20.98 27.4643 20.7568 27.1224 20.422C26.6666 20.1988 26.4387 19.8641 26.3247 19.6409C26.3247 19.4177 26.4387 19.1945 26.5526 19.1945C26.6666 19.1945 27.3504 19.1945 28.6039 19.3061C29.0598 19.3061 29.6296 19.3061 30.1994 19.0829C30.8831 18.9713 31.225 18.8597 31.339 18.7481C31.339 18.6365 31.339 18.5249 31.111 18.4133ZM39.4301 9.26244C39.3162 9.26244 39.0882 9.15084 39.0882 9.03924C38.9743 8.92765 38.8603 8.81608 38.8603 8.59289C38.8603 8.4813 38.9743 8.25807 39.2022 8.03488C39.3162 7.81169 39.5441 7.7001 39.658 7.7001C39.772 7.7001 40.1139 7.7001 40.6837 7.7001C41.2535 7.7001 41.5953 7.58853 41.7093 7.58853C41.9372 7.47693 42.0512 7.36532 42.0512 7.14213C42.2791 6.69575 42.621 6.02616 42.9629 5.46818C43.6466 4.12903 44.1025 3.34788 44.5583 3.0131C44.9002 2.67831 45.47 2.78991 45.9258 3.23629C46.1538 3.45948 46.2677 3.68267 46.2677 3.79426C46.2677 3.79426 46.1537 4.01745 46.0398 4.35223C45.9258 4.57543 45.6979 5.02179 45.356 5.46818C45.0142 6.02616 44.9002 6.36097 44.7862 6.58416C44.3304 7.14214 44.3304 7.36531 44.5583 7.47691C44.7862 7.47691 45.47 7.36531 46.6096 7.25371C47.6352 7.03052 48.205 7.36533 48.319 8.1465C48.4329 8.70448 48.319 9.03924 48.205 9.03924C47.9771 9.15084 47.4073 9.26244 46.6096 9.26244C45.9258 9.37404 45.2421 9.37404 44.5583 9.48564C43.9885 9.48564 43.5327 9.48564 43.4187 9.48564C43.1908 9.59723 42.9629 9.82044 42.8489 10.1552C42.735 10.1552 42.621 10.2668 42.621 10.49C42.3931 10.7132 42.1651 11.2712 41.7093 12.0523C41.1395 13.8379 40.6837 15.2886 40.5697 16.4046C40.3418 17.6321 40.3418 18.3017 40.4558 18.5249C40.5697 18.7481 40.9116 18.8597 41.5954 18.9713C42.735 19.0829 43.9885 18.7481 45.2421 17.967L46.1537 17.5206C46.3817 17.1858 46.6096 17.1858 46.8375 17.8553C46.8375 18.0785 46.8375 18.1901 46.8375 18.4133C46.8375 18.5249 46.7235 18.6365 46.4956 18.9713C46.2677 19.1945 45.9258 19.4177 45.47 19.6409C43.7606 20.6452 42.1652 21.0916 40.5697 20.7568C40.2278 20.6453 39.886 20.422 39.5441 20.0873C39.0882 19.6409 38.8603 19.3061 38.7464 18.9713L38.6324 18.6365C38.5184 18.5249 38.4045 17.9669 38.5184 16.9626C38.5184 15.9582 38.6324 15.2886 38.7464 14.8422C38.8603 14.3959 39.0882 13.8379 39.3162 13.0567C39.658 12.2755 39.772 11.7176 39.886 11.4944L40.7976 9.59726L39.4301 9.26244ZM57.6637 11.606C57.2079 10.8248 56.752 10.3784 56.2962 10.3784C55.8403 10.3784 55.0426 10.9364 54.017 12.0523C52.9913 13.1683 52.0797 14.5075 51.2819 16.0698L50.4842 17.967C50.4842 18.1901 50.7121 18.1901 51.2819 17.967C51.8517 17.6322 52.3076 17.409 52.7634 17.0742C54.7007 15.4002 56.0683 14.0611 56.866 12.8335L57.6637 11.606ZM49.2307 19.7525C49.2307 19.6409 49.1167 19.5293 48.8888 19.4177C48.7748 19.3061 48.7748 19.0829 48.7748 18.9713C48.7748 18.8597 48.6609 18.6365 48.5469 18.5249C48.205 18.1901 48.7748 16.6278 50.3703 13.7263C50.4842 13.6147 50.7121 13.3915 50.8261 13.0567C51.054 12.7219 51.2819 12.4987 51.2819 12.4987C51.2819 12.3871 51.2819 12.3871 51.3959 12.2755C51.5099 12.1639 51.5099 12.164 51.6238 12.164V11.9408C51.6238 11.7176 51.9657 11.2712 52.7634 10.49C54.7007 8.48127 56.1822 7.9233 57.3218 8.70447C57.4358 8.92766 58.3475 9.70883 60.0569 11.2712L59.4871 12.8335C58.9173 14.2843 59.1452 15.6234 59.9429 16.851C60.0569 17.0742 60.2848 17.2974 60.5127 17.5206C60.8546 17.7437 61.1965 17.8554 61.5383 17.967C62.1081 18.0785 62.336 18.3017 62.336 18.6365C62.336 19.0829 62.1081 19.3061 61.6523 19.4177C60.1708 19.6409 58.9172 18.7481 57.8916 16.7394C57.5497 16.293 57.3218 15.8466 57.3218 15.2886C56.9799 15.735 56.6381 16.1814 56.1822 16.5162C53.1053 19.6409 50.7121 20.7568 49.2307 19.7525Z" fill="#734949"/>
</g>
<defs>
<filter id="filter0_d_6_982" x="-4" y="0" width="70.3361" height="29.6496" filterUnits="userSpaceOnUse" color-interpolation-filters="sRGB">
<feFlood flood-opacity="0" result="BackgroundImageFix"/>
<feColorMatrix in="SourceAlpha" type="matrix" values="0 0 0 0 0 0 0 0 0 0 0 0 0 0 0 0 0 0 127 0" result="hardAlpha"/>
<feOffset dy="4"/>
<feGaussianBlur stdDeviation="2"/>
<feComposite in2="hardAlpha" operator="out"/>
<feColorMatrix type="matrix" values="0 0 0 0 0 0 0 0 0 0 0 0 0 0 0 0 0 0 0.25 0"/>
<feBlend mode="normal" in2="BackgroundImageFix" result="effect1_dropShadow_6_982"/>
<feBlend mode="normal" in="SourceGraphic" in2="effect1_dropShadow_6_982" result="shape"/>
</filter>
</defs>
</svg>
